<svg xmlns="http://www.w3.org/2000/svg" viewBox="0 0 360 120">
  <!-- "s" letter -->
  <path d="M55 40c-5-3-12-4-19-2-5 1-8 4-8 8 0 4 3 6 10 8l10 2c12 3 20 10 20 21 0 14-12 23-30 23-10 0-20-3-27-7l4-12c6 4 15 7 23 7 10 0 16-4 16-10s-4-9-13-11l-9-2c-12-3-18-9-18-19 0-12 10-20 25-20 9 0 17 2 23 6l-7 8z" fill="#071D5C"/>
  
  <!-- "a" letter -->
  <path d="M95 40c-5-3-12-4-19-2-5 1-8 4-8 8 0 4 3 6 10 8l10 2c12 3 20 10 20 21 0 14-12 23-30 23-10 0-20-3-27-7l4-12c6 4 15 7 23 7 10 0 16-4 16-10s-4-9-13-11l-9-2c-12-3-18-9-18-19 0-12 10-20 25-20 9 0 17 2 23 6l-7 8z" fill="#071D5C"/>
  
  <!-- "c" letter -->
  <path d="M178 50c0-16-10-28-25-28s-25 12-25 28 10 28 25 28c9 0 16-4 21-11l9 8c-7 9-18 15-31 15-23 0-40-17-40-40s17-40 40-40c13 0 24 6 31 15l-9 8c-5-7-12-11-21-11-15 0-25 12-25 28s10 28 25 28 25-12 25-28z" fill="#071D5C"/>

  <!-- "l" letter -->
  <path d="M235 30v60h-15V30h-15V15h45v15h-15z" fill="#071D5C"/>
  
  <!-- "a" letter (teal) -->
  <path d="M275 40c-5-3-12-4-19-2-5 1-8 4-8 8 0 4 3 6 10 8l10 2c12 3 20 10 20 21 0 14-12 23-30 23-10 0-20-3-27-7l4-12c6 4 15 7 23 7 10 0 16-4 16-10s-4-9-13-11l-9-2c-12-3-18-9-18-19 0-12 10-20 25-20 9 0 17 2 23 6l-7 8z" fill="#00A3B5"/>
  
  <!-- "i" letter (yellow dot) -->
  <circle cx="330" cy="35" r="15" fill="#F9B000"/>
  
  <!-- "i" letter (yellow line) -->
  <rect x="320" y="60" width="20" height="60" fill="#F9B000"/>
</svg>